HIERARCHY
ROOT Hips
{
	OFFSET 0.00000 0.00000 0.00000
	CHANNELS 6 Xposition Yposition Zposition Zrotation Yrotation Xrotation 
	JOINT LHipJoint
	{
		OFFSET 0 0 0
		CHANNELS 3 Zrotation Yrotation Xrotation
		JOINT LeftHip
		{
			OFFSET 1.62964 -1.40469 0.78906
			CHANNELS 3 Zrotation Yrotation Xrotation
			JOINT LeftKnee
			{
				OFFSET 2.29640 -6.30932 0.00000
				CHANNELS 3 Zrotation Yrotation Xrotation
				JOINT LeftAnkle
				{
					OFFSET 2.29451 -6.30412 0.00000
					CHANNELS 3 Zrotation Yrotation Xrotation
					JOINT LeftToe
					{
						OFFSET 0.03611 -0.09921 1.56387
						CHANNELS 3 Zrotation Yrotation Xrotation
						End Site
						{
							OFFSET 0.00000 -0.00000 0.80291
						}
					}
				}
			}
		}
	}
	JOINT RHipJoint
	{
		OFFSET 0 0 0
		CHANNELS 3 Zrotation Yrotation Xrotation
		JOINT RightHip
		{
			OFFSET -1.73712 -1.40469 0.78906
			CHANNELS 3 Zrotation Yrotation Xrotation
			JOINT RightKnee
			{
				OFFSET -2.28137 -6.26801 0.00000
				CHANNELS 3 Zrotation Yrotation Xrotation
				JOINT RightAnkle
				{
					OFFSET -2.28681 -6.28298 0.00000
					CHANNELS 3 Zrotation Yrotation Xrotation
					JOINT RightToe
					{
						OFFSET -0.15927 -0.43759 1.61103
						CHANNELS 3 Zrotation Yrotation Xrotation
						End Site
						{
							OFFSET -0.00000 -0.00000 0.84630
						}
					}
				}
			}
		}
	}
	JOINT lowerback
	{
		OFFSET 0 0 0
		CHANNELS 3 Zrotation Yrotation Xrotation
		JOINT Chest
		{
			OFFSET -0.04227 2.04338 -0.00225
			CHANNELS 3 Zrotation Yrotation Xrotation
			JOINT Chest2
			{
				OFFSET -0.02148 2.04482 -0.04273
				CHANNELS 3 Zrotation Yrotation Xrotation
				JOINT lowerneck
				{
					OFFSET 0 0 0
					CHANNELS 3 Zrotation Yrotation Xrotation
					JOINT Neck
					{
						OFFSET 0.09180 1.44629 0.19359
						CHANNELS 3 Zrotation Yrotation Xrotation
						JOINT Head
						{
							OFFSET 0.00887 1.40645 0.14750
							CHANNELS 3 Zrotation Yrotation Xrotation
							End Site
							{
								OFFSET -0.00669 1.50671 0.03707
							}
						}
					}
				}
				JOINT LeftCollar
				{
					OFFSET 0 0 0
					CHANNELS 3 Zrotation Yrotation Xrotation
					JOINT LeftShoulder
					{
						OFFSET 2.17674 1.86763 -0.06520
CHANNELS 3 Zrotation Xrotation Yrotation
						JOINT LeftElbow
						{
OFFSET 0 -4.657760 0.000000
CHANNELS 3 Zrotation Xrotation Yrotation
							JOINT LeftWrist
							{
OFFSET 0 -3.555390 0.000000
CHANNELS 3 Zrotation Xrotation Yrotation
								JOINT lhand
								{
									OFFSET 0 0 0
CHANNELS 3 Zrotation Xrotation Yrotation
									JOINT LFingers
									{
OFFSET 0 -0.707260 0.000000
CHANNELS 3 Zrotation Xrotation Yrotation
										End Site
										{
OFFSET 0 -0.570220 0.000000
										}
									}
								}
								JOINT LThumb
								{
OFFSET 0 0.000000 0.000000
CHANNELS 3 Zrotation Xrotation Yrotation
									End Site
									{
OFFSET 0 -0.578920 0.578920
									}
								}
							}
						}
					}
				}
				JOINT RightCollar
				{
					OFFSET 0 0 0
					CHANNELS 3 Zrotation Yrotation Xrotation
					JOINT RightShoulder
					{
						OFFSET -2.80694 1.55459 -0.32496
CHANNELS 3 Zrotation Xrotation Yrotation
						JOINT RightElbow
						{
OFFSET 0 -4.719250 -0.000000
CHANNELS 3 Zrotation Xrotation Yrotation
							JOINT RightWrist
							{
OFFSET 0 -3.569900 0.000000
CHANNELS 3 Zrotation Xrotation Yrotation
								JOINT rhand
								{
									OFFSET 0 0 0
CHANNELS 3 Zrotation Xrotation Yrotation
									JOINT RFingers
									{
OFFSET 0 -0.507760 0.000000
CHANNELS 3 Zrotation Xrotation Yrotation
										End Site
										{
OFFSET 0 -0.409370 0.000000
										}
									}
								}
								JOINT RThumb
								{
OFFSET 0 0.000000 0.000000
CHANNELS 3 Zrotation Xrotation Yrotation
									End Site
									{
OFFSET 0 -0.415620 0.415620
									}
								}
							}
						}
					}
				}
			}
		}
	}
}
MOTION
Frames: 4
Frame Time: 0.008333333333333333
-1.125800 19.640000 20.848100 177.211000 -1.471800 -154.075000 0.000000 0.000000 0.000000 -23.314000 -15.446000 -20.766700 0.170500 2.660300 7.334500 0.083700 -2.015700 -5.137100 0.158000 2.561100 7.059200 0.000000 0.000000 0.000000 16.968300 12.301100 -23.202800 -0.231800 -3.098500 8.553200 -0.905800 6.125800 -16.972900 -0.740100 5.495600 -15.327600 -8.047400 -2.605600 -25.438800 -0.726800 -1.367000 -0.409000 3.240900 -1.308500 14.019500 -2.906800 -8.967200 -3.027400 3.442900 -11.203800 24.063300 0.806700 -4.608500 8.322000 -0.000000 0.000000 0.000000 7.048400 1.268700 -14.045300 15.442500 -24.758900 3.409100 23.432700 -28.009100 11.942200 0.000000 0.000000 0.000000 -7.125000 0.000000 0.000000 -2.619300 17.007700 -1.740400 -0.000000 0.000000 0.000000 0.146700 8.850800 20.260400 -36.483300 -45.842700 -15.868300 -12.263600 4.052100 52.661000 0.000000 0.000000 0.000000 7.125000 0.000000 -0.000000 65.402800 75.726300 -51.416700
-1.123530 19.641937 20.844694 177.461417 -1.569763 -154.012896 0.000000 0.000000 0.000000 -22.971696 -15.433980 -20.855181 0.171034 2.664040 7.344851 0.111680 -2.341510 -5.910322 0.951990 -4.055795 -11.511084 0.000000 0.000000 0.000000 17.235212 12.537828 -23.118059 -0.229530 -3.083341 8.510930 -0.921893 6.144565 -17.124352 -0.546978 4.702612 -13.068769 -7.815146 -2.539223 -25.525344 -0.664563 -1.357451 -0.483658 3.183538 -1.289869 13.972555 -2.867535 -8.994846 -2.866131 3.375187 -11.210344 24.125270 0.785598 -4.606296 8.307776 0.000000 0.000000 0.000000 6.935545 2.307565 -18.818322 15.923635 -25.414793 3.614375 12.036974 -20.385127 9.686040 0.000000 0.000000 0.000000 -7.125000 0.000000 0.000000 -10.704642 19.981790 -6.321168 0.000000 0.000000 0.000000 0.074847 8.804389 19.244173 -35.121631 -44.886707 -14.903158 -10.925570 1.480815 47.996492 0.000000 0.000000 0.000000 7.125000 0.000000 0.000000 52.192516 72.890240 -37.526750
-1.121830 19.644376 20.842262 177.696399 -1.674975 -153.929988 0.000000 0.000000 0.000000 -22.638486 -15.432899 -20.982251 0.172005 2.671370 7.365134 0.117916 -2.395953 -6.091785 1.013488 -6.163209 -17.332028 0.000000 0.000000 0.000000 17.491553 12.733819 -23.099825 -0.228098 -3.073988 8.484867 -0.928658 6.091889 -17.188392 -0.428585 4.198540 -11.636285 -7.583664 -2.489388 -25.673061 -0.602594 -1.361425 -0.531941 3.119397 -1.279459 13.992756 -2.848872 -9.018130 -2.692413 3.330259 -11.218701 24.132074 0.775905 -4.609227 8.275298 0.000000 0.000000 0.000000 6.894668 3.049225 -22.261354 16.411347 -26.072867 3.826261 9.464812 -15.972120 8.264986 0.000000 0.000000 0.000000 -7.125000 0.000000 0.000000 -12.524422 21.656930 -7.240246 0.000000 0.000000 0.000000 -0.021301 8.504162 16.936815 -32.109211 -42.474017 -12.872012 -10.510798 0.953723 48.440069 0.000000 0.000000 0.000000 7.125000 0.000000 0.000000 54.031025 72.860026 -39.177456
-1.120700 19.647324 20.840796 177.916603 -1.787695 -153.826149 0.000000 0.000000 0.000000 -22.313575 -15.442620 -21.148225 0.173423 2.682373 7.395582 0.102757 -2.184076 -5.690947 0.356761 -3.830465 -10.601142 0.000000 0.000000 0.000000 17.738065 12.889358 -23.147959 -0.227502 -3.070412 8.474932 -0.926242 5.968885 -17.166392 -0.384374 3.981463 -11.024615 -7.352381 -2.455959 -25.881591 -0.540654 -1.379026 -0.554208 3.048402 -1.277268 14.079471 -2.850549 -9.037009 -2.506328 3.308017 -11.228776 24.084073 0.777550 -4.617198 8.224677 0.000000 0.000000 0.000000 6.924968 3.495224 -24.381286 16.904924 -26.732193 4.044431 15.610354 -14.742192 7.674866 0.000000 0.000000 0.000000 -7.125000 0.000000 0.000000 -8.153624 22.042266 -4.542601 0.000000 0.000000 0.000000 -0.141902 7.952540 13.349453 -27.471966 -38.624561 -9.792710 -11.002936 2.455012 53.912204 0.000000 0.000000 0.000000 7.125000 0.000000 0.000000 70.682168 75.591947 -56.124179
